<svg width="0" height="0">
    <symbol xmlns="http://www.w3.org/2000/svg" viewBox="0 0 24 24" id="info-fill"><path fill="none" d="M0 0h24v24H0z"/><path d="M12 22C6.477 22 2 17.523 2 12S6.477 2 12 2s10 4.477 10 10-4.477 10-10 10zm-1-11v6h2v-6h-2zm0-4v2h2V7h-2z"/></symbol>

    <symbol xmlns="http://www.w3.org/2000/svg" viewBox="0 0 24 24" id="star-fill"><path fill="none" d="M0 0h24v24H0z"/><path d="M12 18.26l-7.053 3.948 1.575-7.928L.587 8.792l8.027-.952L12 .5l3.386 7.34 8.027.952-5.935 5.488 1.575 7.928z"/></symbol>

    <symbol xmlns="http://www.w3.org/2000/svg" viewBox="0 0 24 24" id="lock-fill"><path fill="none" d="M0 0h24v24H0z"/><path d="M19 10h1a1 1 0 0 1 1 1v10a1 1 0 0 1-1 1H4a1 1 0 0 1-1-1V11a1 1 0 0 1 1-1h1V9a7 7 0 1 1 14 0v1zm-2 0V9A5 5 0 0 0 7 9v1h10zm-6 4v4h2v-4h-2z"/></symbol>

    <symbol xmlns="http://www.w3.org/2000/svg" viewBox="0 0 24 24" id="eye-fill"><path fill="none" d="M0 0h24v24H0z"/><path d="M1.181 12C2.121 6.88 6.608 3 12 3c5.392 0 9.878 3.88 10.819 9-.94 5.12-5.427 9-10.819 9-5.392 0-9.878-3.88-10.819-9zM12 17a5 5 0 1 0 0-10 5 5 0 0 0 0 10zm0-2a3 3 0 1 1 0-6 3 3 0 0 1 0 6z"/></symbol>

    <symbol xmlns="http://www.w3.org/2000/svg" viewBox="0 0 24 24" id="map-fill"><path fill="none" d="M0 0h24v24H0z"/><path d="M18.364 17.364L12 23.728l-6.364-6.364a9 9 0 1 1 12.728 0zM12 13a2 2 0 1 0 0-4 2 2 0 0 0 0 4z"/></symbol>

    <symbol xmlns="http://www.w3.org/2000/svg" viewBox="0 0 24 24" id="check-fill"><path fill="none" d="M0 0h24v24H0z"/><path d="M12 22C6.477 22 2 17.523 2 12S6.477 2 12 2s10 4.477 10 10-4.477 10-10 10zm-.997-6l7.07-7.071-1.414-1.414-5.656 5.657-2.829-2.829-1.414 1.414L11.003 16z"/></symbol>

    <symbol xmlns="http://www.w3.org/2000/svg" viewBox="0 0 24 24" id="chevron-down"><path fill="none" d="M0 0h24v24H0z"/><path d="M12 13.172l4.95-4.95 1.414 1.414L12 16 5.636 9.636 7.05 8.222z"/></symbol>

    <symbol xmlns="http://www.w3.org/2000/svg" viewBox="0 0 24 24" id="download"><path fill="none" d="M0 0h24v24H0z"/><path d="M13 10h5l-6 6-6-6h5V3h2v7zm-9 9h16v-7h2v8a1 1 0 0 1-1 1H3a1 1 0 0 1-1-1v-8h2v7z"/></symbol>

    <symbol xmlns="http://www.w3.org/2000/svg" viewBox="0 0 24 24" id="external-link"><path fill="none" d="M0 0h24v24H0z"/><path d="M10 6v2H5v11h11v-5h2v6a1 1 0 0 1-1 1H4a1 1 0 0 1-1-1V7a1 1 0 0 1 1-1h6zm11-3v8h-2V6.413l-7.793 7.794-1.414-1.414L17.585 5H13V3h8z"/></symbol>

    <symbol id="insight" viewBox="0 0 24 24" xmlns="http://www.w3.org/2000/svg">
    <g clip-path="url(#clip0_4_103)">
    <path d="M1.68781 0.75C1.17059 0.750432 0.751683 1.16946 0.751399 1.68677C0.751399 1.68677 0.742966 21.8166 0.742966 21.8646C0.742966 22.632 1.36057 23.2499 2.12798 23.2499H21.8715C22.6389 23.2499 23.257 22.632 23.257 21.8646C23.257 21.0973 22.6389 20.4797 21.8715 20.4797H2.62493V1.68677C2.62465 1.1695 2.20537 0.750461 1.68816 0.75H1.68781Z" fill="#2D2D2D"/>
    <path d="M8.17342 16.8405C8.17342 17.3191 7.9833 17.7781 7.64485 18.1165C7.3064 18.4551 6.84738 18.6451 6.36875 18.6451C5.89011 18.6451 5.43109 18.4551 5.09264 18.1165C4.75419 17.7781 4.56406 17.3191 4.56406 16.8405C4.56406 16.3618 4.75419 15.9028 5.09264 15.5643C5.43109 15.2259 5.89011 15.0358 6.36875 15.0358C6.84738 15.0358 7.3064 15.2259 7.64485 15.5643C7.9833 15.9028 8.17342 16.3618 8.17342 16.8405Z" fill="#2D2D2D"/>
    <path d="M15.2383 16.8405C15.2383 17.3191 15.0481 17.7781 14.7097 18.1165C14.3712 18.4551 13.9122 18.6451 13.4336 18.6451C12.955 18.6451 12.4959 18.4551 12.1575 18.1165C11.819 17.7781 11.6289 17.3191 11.6289 16.8405C11.6289 16.3618 11.819 15.9028 12.1575 15.5643C12.4959 15.2259 12.955 15.0358 13.4336 15.0358C13.9122 15.0358 14.3712 15.2259 14.7097 15.5643C15.0481 15.9028 15.2383 16.3618 15.2383 16.8405Z" fill="#2D2D2D"/>
    <path d="M8.35155 11.25C8.35155 10.7714 8.16143 10.3123 7.82298 9.97389C7.48453 9.63546 7.02551 9.44531 6.54688 9.44531C6.06824 9.44531 5.60922 9.63546 5.27077 9.97389C4.93232 10.3123 4.7422 10.7714 4.7422 11.25C4.7422 11.7286 4.93232 12.1876 5.27077 12.5261C5.60922 12.8645 6.06824 13.0547 6.54688 13.0547C7.02551 13.0547 7.48453 12.8645 7.82298 12.5261C8.16143 12.1876 8.35155 11.7286 8.35155 11.25Z" fill="#2D2D2D"/>
    <path d="M21.375 5.71875C21.375 6.19737 21.1848 6.6564 20.8464 6.99485C20.508 7.33329 20.049 7.52342 19.5702 7.52342C19.0917 7.52342 18.6326 7.33329 18.2942 6.99485C17.9558 6.6564 17.7656 6.19737 17.7656 5.71875C17.7656 5.24011 17.9558 4.78109 18.2942 4.44264C18.6326 4.10419 19.0917 3.91406 19.5702 3.91406C20.049 3.91406 20.508 4.10419 20.8464 4.44264C21.1848 4.78109 21.375 5.24011 21.375 5.71875Z" fill="#2D2D2D"/>
    <path d="M15.2383 5.71875C15.2383 6.19737 15.0481 6.6564 14.7097 6.99485C14.3712 7.33329 13.9122 7.52342 13.4336 7.52342C12.955 7.52342 12.4959 7.33329 12.1575 6.99485C11.819 6.6564 11.6289 6.19737 11.6289 5.71875C11.6289 5.24011 11.819 4.78109 12.1575 4.44264C12.4959 4.10419 12.955 3.91406 13.4336 3.91406C13.9122 3.91406 14.3712 4.10419 14.7097 4.44264C15.0481 4.78109 15.2383 5.24011 15.2383 5.71875Z" fill="#2D2D2D"/>
    <path d="M15.2383 11.25C15.2383 10.7714 15.0481 10.3123 14.7097 9.97389C14.3712 9.63546 13.9122 9.44531 13.4336 9.44531C12.955 9.44531 12.4959 9.63546 12.1575 9.97389C11.819 10.3123 11.6289 10.7714 11.6289 11.25C11.6289 11.7286 11.819 12.1876 12.1575 12.5261C12.4959 12.8645 12.955 13.0547 13.4336 13.0547C13.9122 13.0547 14.3712 12.8645 14.7097 12.5261C15.0481 12.1876 15.2383 11.7286 15.2383 11.25Z" fill="#2D2D2D"/>
    <path d="M21.375 11.25C21.375 10.7714 21.1848 10.3123 20.8464 9.97389C20.508 9.63546 20.049 9.44531 19.5702 9.44531C19.0917 9.44531 18.6326 9.63546 18.2942 9.97389C17.9558 10.3123 17.7656 10.7714 17.7656 11.25C17.7656 11.7286 17.9558 12.1876 18.2942 12.5261C18.6326 12.8645 19.0917 13.0547 19.5702 13.0547C20.049 13.0547 20.508 12.8645 20.8464 12.5261C21.1848 12.1876 21.375 11.7286 21.375 11.25Z" fill="#2D2D2D"/>
    </g>
    <defs>
    <clipPath id="clip0_4_103">
    <rect width="24" height="24" fill="white"/>
    </clipPath>
    </defs>
    </symbol>

    <symbol viewBox="0 0 36 36" id="bell" xmlns="http://www.w3.org/2000/svg">
    <path d="M3 15C3 12.8 3.444 10.719 4.332 8.757C5.219 6.794 6.4875 5.1 8.1375 3.675L10.275 5.775C8.925 6.95 7.875 8.331 7.125 9.918C6.375 11.506 6 13.2 6 15H3ZM30 15C30 13.2 29.625 11.506 28.875 9.918C28.125 8.331 27.075 6.95 25.725 5.775L27.8625 3.675C29.5125 5.1 30.7815 6.794 31.6695 8.757C32.5565 10.719 33 12.8 33 15H30ZM6 28.5V25.5H9V15C9 12.925 9.625 11.081 10.875 9.468C12.125 7.856 13.75 6.8 15.75 6.3V3H20.25V6.3C22.25 6.8 23.875 7.856 25.125 9.468C26.375 11.081 27 12.925 27 15V25.5H30V28.5H6ZM18 33C17.175 33 16.469 32.7065 15.882 32.1195C15.294 31.5315 15 30.825 15 30H21C21 30.825 20.7065 31.5315 20.1195 32.1195C19.5315 32.7065 18.825 33 18 33Z" fill="#2263B1"/>
    </symbol>

    <symbol id="verified" viewBox="0 0 22 22" xmlns="http://www.w3.org/2000/svg">
    <g clip-path="url(#clip0_17_24)">
    <path d="M20.8134 12.4098H20.8167C20.7318 12.2205 20.6627 12.0096 20.614 11.7813C20.4472 11.0133 20.5397 10.213 20.8175 9.58997H20.8134C21.1321 9.00185 21.2184 8.28885 20.9955 7.60134C20.7726 6.91382 20.2845 6.38749 19.6813 6.09946L19.684 6.09744C19.5039 5.99405 19.3258 5.86377 19.1517 5.70869C18.5667 5.18498 18.1723 4.48212 18.0316 3.81609L18.0283 3.81811C17.9472 3.20244 17.642 2.61763 17.1332 2.19743C17.093 2.16451 17.0521 2.13228 17.0093 2.10143C16.4262 1.67577 15.7226 1.53883 15.0658 1.66099L15.0666 1.65764C14.8604 1.67913 14.6401 1.67981 14.4085 1.65631C13.6279 1.57707 12.8968 1.24204 12.392 0.784841L12.3907 0.78888C11.9309 0.303452 11.2808 0 10.5598 0C9.83878 0 9.1894 0.303495 8.72938 0.78888L8.7281 0.784197C8.57346 0.923848 8.39533 1.05546 8.1945 1.17226C7.51694 1.56771 6.72904 1.72815 6.05216 1.65566L6.05417 1.66104C5.39743 1.53883 4.69313 1.67582 4.11069 2.10147C3.70564 2.39552 3.41311 2.78963 3.24377 3.22535C3.16879 3.416 3.11789 3.61543 3.09111 3.81816L3.08776 3.81545C3.04564 4.01887 2.97734 4.22968 2.88359 4.44319C2.56758 5.16294 2.02396 5.75639 1.43415 6.09611L1.43818 6.09946C0.83564 6.38749 0.346952 6.91382 0.124696 7.60134C-0.0989305 8.28885 -0.011905 9.00185 0.306803 9.58997H0.302132C0.387144 9.78067 0.455445 9.99079 0.504978 10.2184C0.671702 10.9871 0.579234 11.7881 0.302132 12.4099H0.306803C-0.011905 12.9994 -0.0989305 13.7124 0.124696 14.3999C0.346995 15.0873 0.835683 15.6137 1.43818 15.9011L1.43488 15.9038C1.61493 16.0071 1.79374 16.1375 1.96642 16.2932C2.5522 16.817 2.94653 17.5191 3.08712 18.1866L3.09115 18.1825C3.10653 18.294 3.12864 18.404 3.15812 18.5129C3.30273 19.0513 3.62543 19.5469 4.11073 19.8999C4.47156 20.1618 4.87862 20.3162 5.29237 20.3645C5.54744 20.3955 5.80389 20.3874 6.05422 20.3403L6.05289 20.3444C6.25912 20.3229 6.48 20.3216 6.711 20.3457C7.49093 20.4249 8.22201 20.7593 8.72745 21.2172L8.72947 21.2118C9.1894 21.6979 9.83886 22 10.5599 22C11.2808 22 11.9309 21.6979 12.3908 21.2118L12.3915 21.2145C12.5462 21.0749 12.7243 20.9446 12.9258 20.8278C13.6034 20.4317 14.3907 20.2718 15.0674 20.3444L15.0661 20.3403C15.1478 20.3551 15.2288 20.3672 15.3117 20.3739C15.8949 20.4235 16.4987 20.2718 17.0096 19.8999C17.4608 19.571 17.7721 19.1212 17.9294 18.6257C17.9763 18.4807 18.0084 18.3329 18.0285 18.1825L18.0312 18.1852C18.0734 17.9811 18.141 17.7705 18.2354 17.5569C18.5522 16.8372 19.0957 16.2436 19.6856 15.9039L19.6815 15.9012C20.2847 15.6138 20.7728 15.0861 20.9958 14.4C21.2185 13.7122 21.1321 12.9979 20.8134 12.4098Z" fill="#00C57F"/>
    <path fill-rule="evenodd" clip-rule="evenodd" d="M14.3434 6.59998L9.31479 11.9575L7.13666 9.63626L5.52148 11.3574L9.31489 15.4L15.9593 8.32043L14.3434 6.59998Z" fill="#FCFCFC"/>
    </g>
    <defs>
    <clipPath id="clip0_17_24">
    <rect width="22" height="22" fill="white"/>
    </clipPath>
    </defs>
    </symbol>

    <symbol id="semrush-logo" viewBox="0 0 309 43" fill="none" xmlns="http://www.w3.org/2000/svg">
    <path d="M213.345 17.4219C213.345 12.3707 210.234 8.69442 204.271 8.69442H185.004V34.8809H191.331V25.9438H198.826L206.163 34.8788H213.294V34.3108L206.163 25.789C210.648 24.8823 213.345 21.6172 213.345 17.4219ZM203.571 20.6595H191.357V14.1334H203.571C205.826 14.1334 207.279 15.3243 207.279 17.3964C207.279 19.5196 205.878 20.6595 203.571 20.6595ZM309 8.69442H303.062V18.6401H287.113V8.69442H280.711V34.9063H287.113V24.5708H303.062V34.9063H309V8.69442ZM168.075 8.69442L161.02 30.7344H160.632L153.554 8.69442H142.272V34.9063H148.313V13.3813H148.676L155.728 34.9063H165.454L172.532 13.3813H172.895V34.9063H179.118V8.69442H168.071H168.075ZM99.1549 19.4158C96.9236 19.1846 92.7493 18.7949 90.5198 18.5618C88.316 18.3287 87.0453 17.6804 87.0453 16.2311C87.0453 14.8326 88.3924 13.6653 93.8373 13.6653C98.6609 13.6653 103.094 14.7034 106.959 16.5679V10.7137C103.096 8.87461 98.8158 7.96777 93.5002 7.96777C86.0337 7.96777 80.873 11.0761 80.873 16.3603C80.873 20.8161 83.9062 23.2507 89.9748 23.9224C92.1786 24.1574 95.9119 24.4924 98.5315 24.7C101.382 24.935 102.214 25.8144 102.214 27.1091C102.214 28.8973 100.216 29.9843 95.161 29.9843C90.0257 29.9843 84.814 28.3 81.1063 25.9438V31.9782C84.0886 33.9739 89.2237 35.6564 94.9531 35.6564C103.094 35.6564 108.333 32.5226 108.333 26.9016C108.384 22.6552 105.584 20.0894 99.1531 19.4177L99.1549 19.4158ZM112.533 8.69442V34.9063H136.984V29.5416H118.574V24.2339H136.672V18.9223H118.574V14.0551H136.986V8.69442H112.531H112.533ZM267.616 19.4158C265.384 19.1846 261.21 18.7949 258.981 18.5618C256.777 18.3287 255.507 17.6804 255.507 16.2311C255.507 14.8326 256.856 13.6653 262.302 13.6653C267.122 13.6653 271.557 14.7034 275.42 16.5679V10.7137C271.557 8.87461 267.279 7.96777 261.963 7.96777C254.494 7.96777 249.337 11.0761 249.337 16.3603C249.337 20.8161 252.369 23.2507 258.436 23.9224C260.641 24.1574 264.375 24.4924 266.993 24.7C269.845 24.935 270.675 25.8144 270.675 27.1091C270.675 28.8973 268.678 29.9843 263.622 29.9843C258.489 29.9843 253.277 28.3 249.569 25.9438V31.9782C252.55 33.9739 257.685 35.6564 263.414 35.6564C271.557 35.6564 276.795 32.5226 276.795 26.9016C276.847 22.6552 274.046 20.0894 267.616 19.4177V19.4158ZM238.705 8.69442V22.1108C238.705 27.1874 235.619 29.9843 230.978 29.9843C226.312 29.9843 223.25 27.2383 223.25 22.0325V8.69442H216.95V21.437C216.95 30.9421 222.888 35.6564 231.081 35.6564C238.939 35.6564 245.033 31.1496 245.033 21.7485V8.69442H238.705Z" fill="black"/>
    <path d="M59.195 21.6432C59.195 22.9122 58.5478 23.1179 56.9401 23.1179C55.2303 23.1179 54.9185 22.8339 54.7363 21.5392C54.399 18.2489 52.1695 15.452 48.4364 15.1406C47.2442 15.0387 46.9579 14.598 46.9579 13.1213C46.9579 11.7503 47.1658 11.102 48.2285 11.102C54.7108 11.1274 59.1969 16.3314 59.1969 21.6432H59.195ZM68.634 21.6432C68.634 11.7738 61.9459 1.33643 46.4912 1.33643H15.7918C15.1683 1.33643 14.7801 1.64784 14.7801 2.21779C14.7801 2.52726 15.0134 2.81321 15.2213 2.96793C16.335 3.8493 17.9957 4.83251 20.1721 5.92149C22.2995 6.98305 23.9584 7.68226 25.6172 8.35602C26.3171 8.64002 26.5779 8.95144 26.5779 9.33924C26.5779 9.88371 26.1877 10.2206 25.4367 10.2206H1.06468C0.337248 10.2206 0 10.6867 0 11.1529C0 11.5407 0.129409 11.8776 0.466657 12.2144C2.4372 14.2866 5.59988 16.7741 10.192 19.6493C14.3844 22.2491 18.7113 24.6263 23.1544 26.7707C23.829 27.0821 24.0368 27.4444 24.0368 27.8322C24.0114 28.2729 23.6741 28.6354 22.8956 28.6354H11.7194C11.0978 28.6354 10.7351 28.9721 10.7351 29.4912C10.7351 29.7752 10.9684 30.1376 11.2802 30.4234C13.8193 32.7288 17.8918 35.2417 23.3113 37.545C30.5464 40.6277 37.8817 42.4668 46.1285 42.4668C61.7635 42.4668 68.634 30.7857 68.634 21.6432ZM48.2285 36.2249C40.2423 36.2249 33.5523 29.7223 33.5523 21.6176C33.5523 13.6383 40.2168 7.21613 48.2285 7.21613C56.4225 7.21613 62.8517 13.6129 62.8517 21.6176C62.8263 29.7242 56.4204 36.2249 48.2285 36.2249Z" fill="#FF622D"/>
    </symbol>
</svg>